<svg xmlns="http://www.w3.org/2000/svg" xmlns:xlink="http://www.w3.org/1999/xlink" width="50" zoomAndPan="magnify" viewBox="0 0 37.5 37.499999" height="50" preserveAspectRatio="xMidYMid meet" version="1.0"><defs><clipPath id="e4af8d40ee"><path d="M 0 5.6875 L 37.007812 5.6875 L 37.007812 31.589844 L 0 31.589844 Z M 0 5.6875 " clip-rule="nonzero"/></clipPath></defs><path fill="#000000" d="M 18.867188 20.945312 C 18.632812 20.945312 18.40625 20.910156 18.175781 20.835938 L 7.613281 17.273438 C 7.421875 17.777344 7.324219 18.425781 7.324219 19.371094 C 8.015625 19.773438 8.6875 20.585938 8.6875 21.984375 C 8.6875 22.839844 8.261719 23.457031 7.898438 23.867188 C 9.464844 25.703125 13.777344 27.027344 18.867188 27.027344 C 25.28125 27.027344 30.476562 24.929688 30.476562 22.34375 C 30.476562 21.773438 30.476562 19.441406 30.476562 17.15625 L 19.550781 20.835938 C 19.328125 20.910156 19.097656 20.945312 18.867188 20.945312 Z M 18.867188 20.945312 " fill-opacity="1" fill-rule="nonzero"/><g clip-path="url(#e4af8d40ee)"><path fill="#000000" d="M 36.511719 11.707031 L 19.09375 5.839844 C 18.945312 5.789062 18.785156 5.789062 18.636719 5.839844 L 1.222656 11.707031 C 0.925781 11.808594 0.726562 12.089844 0.726562 12.402344 C 0.726562 12.71875 0.925781 13 1.222656 13.097656 L 5.214844 14.445312 C 4.296875 15.519531 3.761719 17.039062 3.566406 19.507812 C 2.933594 19.808594 2.488281 20.449219 2.488281 21.203125 C 2.488281 21.972656 2.945312 22.625 3.59375 22.917969 C 3.027344 27.914062 0.0664062 29.578125 0.0664062 30.007812 C 0.0664062 30.222656 2.359375 31.472656 2.902344 31.472656 C 3.746094 31.472656 5.765625 30.03125 5.765625 26.914062 C 5.765625 25.078125 5.601562 23.6875 5.429688 22.703125 C 5.894531 22.363281 6.21875 21.832031 6.21875 21.203125 C 6.21875 20.519531 5.839844 19.949219 5.296875 19.617188 C 5.605469 15.542969 6.851562 14.859375 9.867188 13.59375 C 10.167969 13.472656 10.738281 13.242188 11.070312 13.101562 C 11.660156 12.855469 12.195312 12.636719 12.710938 12.429688 C 14.367188 11.761719 15.769531 11.226562 16.839844 10.828125 C 18.011719 10.40625 18.535156 10.253906 18.554688 10.246094 C 19.003906 10.09375 19.503906 10.339844 19.65625 10.800781 C 19.808594 11.261719 19.566406 11.761719 19.109375 11.917969 C 19.074219 11.929688 17.035156 12.515625 11.734375 14.730469 C 11.394531 14.875 11.070312 15.003906 10.757812 15.125 C 10.132812 15.375 9.609375 15.578125 9.171875 15.78125 L 18.636719 18.96875 C 18.710938 18.992188 18.789062 19.003906 18.867188 19.003906 C 18.945312 19.003906 19.019531 18.992188 19.09375 18.964844 L 36.511719 13.097656 C 36.804688 13 37.007812 12.71875 37.007812 12.402344 C 37.007812 12.089844 36.804688 11.808594 36.511719 11.707031 Z M 36.511719 11.707031 " fill-opacity="1" fill-rule="nonzero"/></g></svg>