<svg xmlns="http://www.w3.org/2000/svg" xmlns:xlink="http://www.w3.org/1999/xlink" width="50" zoomAndPan="magnify" viewBox="0 0 37.5 37.499999" height="50" preserveAspectRatio="xMidYMid meet" version="1.0"><defs><clipPath id="ab1d940305"><path d="M 24 17 L 37.007812 17 L 37.007812 21 L 24 21 Z M 24 17 " clip-rule="nonzero"/></clipPath><clipPath id="36614a514e"><path d="M 8 34 L 29 34 L 29 37.007812 L 8 37.007812 Z M 8 34 " clip-rule="nonzero"/></clipPath></defs><path fill="#3f51b5" d="M 24.054688 0.925781 L 24.054688 0.847656 C 22.300781 0.296875 20.4375 0 18.503906 0 C 8.285156 0 0 8.285156 0 18.503906 C 0 19.128906 0.0351562 19.746094 0.09375 20.355469 L 24.054688 20.355469 Z M 24.054688 0.925781 " fill-opacity="1" fill-rule="nonzero"/><path fill="#eceff1" d="M 24.054688 6.476562 L 32.546875 6.476562 C 31.660156 5.445312 30.660156 4.515625 29.570312 3.699219 L 24.054688 3.699219 Z M 24.054688 6.476562 " fill-opacity="1" fill-rule="nonzero"/><path fill="#eceff1" d="M 36.914062 20.355469 L 0.09375 20.355469 C 0.1875 21.304688 0.375 22.226562 0.605469 23.128906 L 36.402344 23.128906 C 36.632812 22.226562 36.820312 21.304688 36.914062 20.355469 Z M 36.914062 20.355469 " fill-opacity="1" fill-rule="nonzero"/><path fill="#eceff1" d="M 31.707031 31.457031 L 5.300781 31.457031 C 6.34375 32.519531 7.519531 33.445312 8.789062 34.230469 L 28.214844 34.230469 C 29.488281 33.445312 30.664062 32.519531 31.707031 31.457031 Z M 31.707031 31.457031 " fill-opacity="1" fill-rule="nonzero"/><path fill="#eceff1" d="M 35.457031 25.90625 L 1.550781 25.90625 C 1.972656 26.875 2.480469 27.804688 3.058594 28.679688 L 33.949219 28.679688 C 34.527344 27.804688 35.03125 26.875 35.457031 25.90625 Z M 35.457031 25.90625 " fill-opacity="1" fill-rule="nonzero"/><path fill="#eceff1" d="M 24.054688 12.027344 L 35.820312 12.027344 C 35.457031 11.0625 35.023438 10.132812 34.511719 9.25 L 24.054688 9.25 Z M 24.054688 12.027344 " fill-opacity="1" fill-rule="nonzero"/><path fill="#eceff1" d="M 24.054688 17.578125 L 36.960938 17.578125 C 36.914062 16.632812 36.820312 15.703125 36.636719 14.800781 L 24.054688 14.800781 Z M 24.054688 17.578125 " fill-opacity="1" fill-rule="nonzero"/><path fill="#f44336" d="M 24.054688 3.699219 L 29.570312 3.699219 C 27.976562 2.507812 26.195312 1.558594 24.261719 0.925781 L 24.054688 0.925781 Z M 24.054688 3.699219 " fill-opacity="1" fill-rule="nonzero"/><path fill="#f44336" d="M 24.054688 9.25 L 34.511719 9.25 C 33.941406 8.265625 33.285156 7.335938 32.546875 6.476562 L 24.054688 6.476562 Z M 24.054688 9.25 " fill-opacity="1" fill-rule="nonzero"/><path fill="#f44336" d="M 24.054688 14.800781 L 36.632812 14.800781 C 36.441406 13.847656 36.152344 12.925781 35.816406 12.027344 L 24.054688 12.027344 Z M 24.054688 14.800781 " fill-opacity="1" fill-rule="nonzero"/><g clip-path="url(#ab1d940305)"><path fill="#f44336" d="M 24.054688 20.355469 L 36.914062 20.355469 C 36.972656 19.746094 37.007812 19.128906 37.007812 18.503906 C 37.007812 18.191406 36.976562 17.886719 36.960938 17.578125 L 24.054688 17.578125 Z M 24.054688 20.355469 " fill-opacity="1" fill-rule="nonzero"/></g><path fill="#f44336" d="M 36.398438 23.128906 L 0.605469 23.128906 C 0.851562 24.085938 1.160156 25.015625 1.550781 25.90625 L 35.457031 25.90625 C 35.84375 25.015625 36.152344 24.085938 36.398438 23.128906 Z M 36.398438 23.128906 " fill-opacity="1" fill-rule="nonzero"/><path fill="#f44336" d="M 33.949219 28.679688 L 3.058594 28.679688 C 3.714844 29.675781 4.464844 30.605469 5.300781 31.457031 L 31.707031 31.457031 C 32.539062 30.605469 33.292969 29.675781 33.949219 28.679688 Z M 33.949219 28.679688 " fill-opacity="1" fill-rule="nonzero"/><g clip-path="url(#36614a514e)"><path fill="#f44336" d="M 8.789062 34.230469 C 11.617188 35.980469 14.9375 37.007812 18.503906 37.007812 C 22.070312 37.007812 25.390625 35.980469 28.214844 34.230469 Z M 8.789062 34.230469 " fill-opacity="1" fill-rule="nonzero"/></g><path fill="#ffffff" d="M 5.78125 8.328125 L 6.210938 9.242188 L 7.171875 9.386719 L 6.476562 10.097656 L 6.644531 11.101562 L 5.78125 10.628906 L 4.921875 11.101562 L 5.089844 10.097656 L 4.394531 9.386719 L 5.351562 9.242188 Z M 5.78125 8.328125 " fill-opacity="1" fill-rule="nonzero"/><path fill="#ffffff" d="M 9.484375 8.328125 L 9.914062 9.242188 L 10.871094 9.386719 L 10.175781 10.097656 L 10.34375 11.101562 L 9.484375 10.628906 L 8.621094 11.101562 L 8.789062 10.097656 L 8.09375 9.386719 L 9.050781 9.242188 Z M 9.484375 8.328125 " fill-opacity="1" fill-rule="nonzero"/><path fill="#ffffff" d="M 2.082031 10.628906 L 2.941406 11.101562 L 2.777344 10.097656 L 3.46875 9.386719 L 2.511719 9.242188 L 2.507812 9.230469 C 2.203125 9.757812 1.921875 10.296875 1.667969 10.855469 Z M 2.082031 10.628906 " fill-opacity="1" fill-rule="nonzero"/><path fill="#ffffff" d="M 13.183594 8.328125 L 13.613281 9.242188 L 14.570312 9.386719 L 13.878906 10.097656 L 14.042969 11.101562 L 13.183594 10.628906 L 12.324219 11.101562 L 12.488281 10.097656 L 11.796875 9.386719 L 12.753906 9.242188 Z M 13.183594 8.328125 " fill-opacity="1" fill-rule="nonzero"/><path fill="#ffffff" d="M 16.882812 8.328125 L 17.3125 9.242188 L 18.273438 9.386719 L 17.578125 10.097656 L 17.746094 11.101562 L 16.882812 10.628906 L 16.023438 11.101562 L 16.191406 10.097656 L 15.496094 9.386719 L 16.453125 9.242188 Z M 16.882812 8.328125 " fill-opacity="1" fill-rule="nonzero"/><path fill="#ffffff" d="M 20.355469 8.328125 L 20.785156 9.242188 L 21.742188 9.386719 L 21.046875 10.097656 L 21.214844 11.101562 L 20.355469 10.628906 L 19.492188 11.101562 L 19.660156 10.097656 L 18.964844 9.386719 L 19.921875 9.242188 Z M 20.355469 8.328125 " fill-opacity="1" fill-rule="nonzero"/><path fill="#ffffff" d="M 5.78125 15.726562 L 6.210938 16.640625 L 7.171875 16.785156 L 6.476562 17.5 L 6.644531 18.503906 L 5.78125 18.03125 L 4.921875 18.503906 L 5.089844 17.5 L 4.394531 16.785156 L 5.351562 16.640625 Z M 5.78125 15.726562 " fill-opacity="1" fill-rule="nonzero"/><path fill="#ffffff" d="M 9.484375 15.726562 L 9.914062 16.640625 L 10.871094 16.785156 L 10.175781 17.5 L 10.34375 18.503906 L 9.484375 18.03125 L 8.621094 18.503906 L 8.789062 17.5 L 8.09375 16.785156 L 9.050781 16.640625 Z M 9.484375 15.726562 " fill-opacity="1" fill-rule="nonzero"/><path fill="#ffffff" d="M 13.183594 15.726562 L 13.613281 16.640625 L 14.570312 16.785156 L 13.878906 17.5 L 14.042969 18.503906 L 13.183594 18.03125 L 12.324219 18.503906 L 12.488281 17.5 L 11.796875 16.785156 L 12.753906 16.640625 Z M 13.183594 15.726562 " fill-opacity="1" fill-rule="nonzero"/><path fill="#ffffff" d="M 2.082031 15.726562 L 2.511719 16.640625 L 3.46875 16.785156 L 2.777344 17.5 L 2.941406 18.503906 L 2.082031 18.03125 L 1.222656 18.503906 L 1.386719 17.5 L 0.695312 16.785156 L 1.652344 16.640625 Z M 2.082031 15.726562 " fill-opacity="1" fill-rule="nonzero"/><path fill="#ffffff" d="M 16.882812 15.726562 L 17.3125 16.640625 L 18.273438 16.785156 L 17.578125 17.5 L 17.746094 18.503906 L 16.882812 18.03125 L 16.023438 18.503906 L 16.191406 17.5 L 15.496094 16.785156 L 16.453125 16.640625 Z M 16.882812 15.726562 " fill-opacity="1" fill-rule="nonzero"/><path fill="#ffffff" d="M 20.355469 15.726562 L 20.785156 16.640625 L 21.742188 16.785156 L 21.046875 17.5 L 21.214844 18.503906 L 20.355469 18.03125 L 19.492188 18.503906 L 19.660156 17.5 L 18.964844 16.785156 L 19.921875 16.640625 Z M 20.355469 15.726562 " fill-opacity="1" fill-rule="nonzero"/><path fill="#ffffff" d="M 6.707031 12.027344 L 7.136719 12.941406 L 8.09375 13.085938 L 7.402344 13.796875 L 7.566406 14.800781 L 6.707031 14.328125 L 5.847656 14.800781 L 6.011719 13.796875 L 5.320312 13.085938 L 6.277344 12.941406 Z M 6.707031 12.027344 " fill-opacity="1" fill-rule="nonzero"/><path fill="#ffffff" d="M 10.40625 12.027344 L 10.839844 12.941406 L 11.796875 13.085938 L 11.101562 13.796875 L 11.269531 14.800781 L 10.40625 14.328125 L 9.546875 14.800781 L 9.714844 13.796875 L 9.019531 13.085938 L 9.976562 12.941406 Z M 10.40625 12.027344 " fill-opacity="1" fill-rule="nonzero"/><path fill="#ffffff" d="M 3.007812 12.027344 L 3.4375 12.941406 L 4.394531 13.085938 L 3.699219 13.796875 L 3.867188 14.800781 L 3.007812 14.328125 L 2.144531 14.800781 L 2.3125 13.796875 L 1.617188 13.085938 L 2.578125 12.941406 Z M 3.007812 12.027344 " fill-opacity="1" fill-rule="nonzero"/><path fill="#ffffff" d="M 14.109375 12.027344 L 14.539062 12.941406 L 15.496094 13.085938 L 14.800781 13.796875 L 14.96875 14.800781 L 14.109375 14.328125 L 13.25 14.800781 L 13.414062 13.796875 L 12.722656 13.085938 L 13.679688 12.941406 Z M 14.109375 12.027344 " fill-opacity="1" fill-rule="nonzero"/><path fill="#ffffff" d="M 17.808594 12.027344 L 18.238281 12.941406 L 19.195312 13.085938 L 18.503906 13.796875 L 18.667969 14.800781 L 17.808594 14.328125 L 16.949219 14.800781 L 17.117188 13.796875 L 16.421875 13.085938 L 17.378906 12.941406 Z M 17.808594 12.027344 " fill-opacity="1" fill-rule="nonzero"/><path fill="#ffffff" d="M 21.277344 12.027344 L 21.707031 12.941406 L 22.667969 13.085938 L 21.972656 13.796875 L 22.140625 14.800781 L 21.277344 14.328125 L 20.417969 14.800781 L 20.585938 13.796875 L 19.890625 13.085938 L 20.847656 12.941406 Z M 21.277344 12.027344 " fill-opacity="1" fill-rule="nonzero"/><path fill="#ffffff" d="M 6.707031 4.625 L 7.136719 5.539062 L 8.09375 5.683594 L 7.402344 6.398438 L 7.566406 7.402344 L 6.707031 6.925781 L 5.847656 7.402344 L 6.011719 6.398438 L 5.320312 5.683594 L 6.277344 5.539062 Z M 6.707031 4.625 " fill-opacity="1" fill-rule="nonzero"/><path fill="#ffffff" d="M 10.40625 4.625 L 10.839844 5.539062 L 11.796875 5.683594 L 11.101562 6.398438 L 11.269531 7.402344 L 10.40625 6.925781 L 9.546875 7.402344 L 9.714844 6.398438 L 9.019531 5.683594 L 9.976562 5.539062 Z M 10.40625 4.625 " fill-opacity="1" fill-rule="nonzero"/><path fill="#ffffff" d="M 14.109375 4.625 L 14.539062 5.539062 L 15.496094 5.683594 L 14.800781 6.398438 L 14.96875 7.402344 L 14.109375 6.925781 L 13.25 7.402344 L 13.414062 6.398438 L 12.722656 5.683594 L 13.679688 5.539062 Z M 14.109375 4.625 " fill-opacity="1" fill-rule="nonzero"/><path fill="#ffffff" d="M 17.808594 4.625 L 18.238281 5.539062 L 19.195312 5.683594 L 18.503906 6.398438 L 18.667969 7.402344 L 17.808594 6.925781 L 16.949219 7.402344 L 17.117188 6.398438 L 16.421875 5.683594 L 17.378906 5.539062 Z M 17.808594 4.625 " fill-opacity="1" fill-rule="nonzero"/><path fill="#ffffff" d="M 21.277344 4.625 L 21.707031 5.539062 L 22.667969 5.683594 L 21.972656 6.398438 L 22.140625 7.402344 L 21.277344 6.925781 L 20.417969 7.402344 L 20.585938 6.398438 L 19.890625 5.683594 L 20.847656 5.539062 Z M 21.277344 4.625 " fill-opacity="1" fill-rule="nonzero"/><path fill="#ffffff" d="M 10.34375 3.699219 L 10.175781 2.695312 L 10.871094 1.984375 L 10.359375 1.90625 C 9.816406 2.175781 9.289062 2.46875 8.773438 2.785156 L 8.621094 3.699219 L 9.484375 3.226562 Z M 10.34375 3.699219 " fill-opacity="1" fill-rule="nonzero"/><path fill="#ffffff" d="M 13.183594 0.925781 L 13.613281 1.839844 L 14.570312 1.984375 L 13.878906 2.695312 L 14.042969 3.699219 L 13.183594 3.226562 L 12.324219 3.699219 L 12.488281 2.695312 L 11.796875 1.984375 L 12.753906 1.839844 Z M 13.183594 0.925781 " fill-opacity="1" fill-rule="nonzero"/><path fill="#ffffff" d="M 16.882812 0.925781 L 17.3125 1.839844 L 18.273438 1.984375 L 17.578125 2.695312 L 17.746094 3.699219 L 16.882812 3.226562 L 16.023438 3.699219 L 16.191406 2.695312 L 15.496094 1.984375 L 16.453125 1.839844 Z M 16.882812 0.925781 " fill-opacity="1" fill-rule="nonzero"/><path fill="#ffffff" d="M 20.355469 0.925781 L 20.785156 1.839844 L 21.742188 1.984375 L 21.046875 2.695312 L 21.214844 3.699219 L 20.355469 3.226562 L 19.492188 3.699219 L 19.660156 2.695312 L 18.964844 1.984375 L 19.921875 1.839844 Z M 20.355469 0.925781 " fill-opacity="1" fill-rule="nonzero"/></svg>