<svg xmlns="http://www.w3.org/2000/svg" xmlns:xlink="http://www.w3.org/1999/xlink" width="50" zoomAndPan="magnify" viewBox="0 0 37.5 37.499999" height="50" preserveAspectRatio="xMidYMid meet" version="1.0"><defs><clipPath id="8c83bb13dc"><path d="M 11.273438 0 L 26.695312 0 L 26.695312 37.003906 L 11.273438 37.003906 Z M 11.273438 0 " clip-rule="nonzero"/></clipPath><clipPath id="7d9929bd37"><path d="M 25.691406 1.441406 L 37.003906 1.441406 L 37.003906 35.566406 L 25.691406 35.566406 Z M 25.691406 1.441406 " clip-rule="nonzero"/></clipPath></defs><path fill="#46bc50" d="M 8.613281 2.855469 C 7.472656 3.582031 6.398438 4.4375 5.417969 5.417969 C 1.925781 8.914062 0 13.558594 0 18.503906 C 0 23.445312 1.925781 28.089844 5.417969 31.585938 C 6.398438 32.566406 7.472656 33.421875 8.613281 34.148438 C 9.46875 34.691406 10.363281 35.15625 11.289062 35.550781 L 11.289062 1.453125 C 10.363281 1.847656 9.46875 2.3125 8.613281 2.855469 " fill-opacity="1" fill-rule="nonzero"/><g clip-path="url(#8c83bb13dc)"><path fill="#ffffff" d="M 18.503906 0 C 15.984375 0 13.542969 0.503906 11.289062 1.453125 L 11.289062 35.550781 C 13.542969 36.503906 15.984375 37.003906 18.503906 37.003906 C 21.386719 37.003906 24.171875 36.347656 26.683594 35.105469 L 26.683594 1.902344 C 24.171875 0.660156 21.386719 0 18.503906 0 " fill-opacity="1" fill-rule="nonzero"/></g><g clip-path="url(#7d9929bd37)"><path fill="#ee2332" d="M 25.710938 35.550781 C 26.171875 35.320312 27.597656 34.632812 28.039062 34.367188 C 29.316406 33.59375 30.503906 32.664062 31.585938 31.585938 C 35.082031 28.089844 37.003906 23.445312 37.003906 18.503906 C 37.003906 13.558594 35.082031 8.914062 31.585938 5.417969 C 30.503906 4.339844 29.316406 3.410156 28.039062 2.640625 C 27.597656 2.371094 26.171875 1.683594 25.710938 1.453125 L 25.710938 35.550781 " fill-opacity="1" fill-rule="nonzero"/></g></svg>