<svg xmlns="http://www.w3.org/2000/svg" xmlns:xlink="http://www.w3.org/1999/xlink" width="50" zoomAndPan="magnify" viewBox="0 0 37.5 37.499999" height="50" preserveAspectRatio="xMidYMid meet" version="1.0"><defs><clipPath id="865fca6fdb"><path d="M 0 0 L 37.007812 0 L 37.007812 37.007812 L 0 37.007812 Z M 0 0 " clip-rule="nonzero"/></clipPath></defs><g clip-path="url(#865fca6fdb)"><path fill="#009846" d="M 37.007812 18.503906 C 37.007812 28.722656 28.722656 37.007812 18.503906 37.007812 C 8.285156 37.007812 0 28.722656 0 18.503906 C 0 8.285156 8.285156 0 18.503906 0 C 28.722656 0 37.007812 8.285156 37.007812 18.503906 " fill-opacity="1" fill-rule="nonzero"/></g><path fill="#ffdf00" d="M 1.683594 18.21875 L 18.441406 7.390625 L 35.28125 18.195312 L 18.480469 29.113281 L 1.683594 18.21875 " fill-opacity="1" fill-rule="nonzero"/><path fill="#002279" d="M 25.597656 18.1875 C 25.597656 22.15625 22.417969 25.375 18.496094 25.375 C 14.574219 25.375 11.398438 22.15625 11.398438 18.1875 C 11.398438 14.21875 14.574219 11 18.496094 11 C 22.417969 11 25.597656 14.21875 25.597656 18.1875 " fill-opacity="1" fill-rule="nonzero"/><path fill="#ffffff" d="M 17.839844 15.359375 C 22.695312 16.394531 25.515625 19.269531 25.515625 19.269531 C 25.441406 19.828125 25.253906 20.410156 25.253906 20.410156 C 22.132812 17.417969 18.234375 16.613281 18.234375 16.613281 C 14.761719 15.765625 11.625 16.375 11.625 16.375 C 11.722656 15.96875 12.003906 15.273438 12.003906 15.273438 C 12.003906 15.273438 14.371094 14.828125 17.839844 15.359375 " fill-opacity="1" fill-rule="nonzero"/><path fill="#ffffff" d="M 12.695312 16.601562 L 12.761719 16.8125 L 12.984375 16.8125 L 12.804688 16.945312 L 12.871094 17.160156 L 12.695312 17.027344 L 12.515625 17.160156 L 12.582031 16.945312 L 12.402344 16.8125 L 12.625 16.8125 L 12.695312 16.601562 " fill-opacity="1" fill-rule="nonzero"/><path fill="#ffffff" d="M 15.777344 18.230469 L 15.835938 18.417969 L 16.03125 18.417969 L 15.875 18.53125 L 15.933594 18.714844 L 15.777344 18.601562 L 15.621094 18.714844 L 15.679688 18.53125 L 15.523438 18.417969 L 15.71875 18.417969 L 15.777344 18.230469 " fill-opacity="1" fill-rule="nonzero"/><path fill="#ffffff" d="M 14.023438 19.3125 L 14.0625 19.425781 L 14.179688 19.425781 L 14.082031 19.496094 L 14.121094 19.609375 L 14.023438 19.539062 L 13.929688 19.609375 L 13.964844 19.496094 L 13.871094 19.425781 L 13.988281 19.425781 L 14.023438 19.3125 " fill-opacity="1" fill-rule="nonzero"/><path fill="#ffffff" d="M 13.320312 19.605469 L 13.398438 19.84375 L 13.644531 19.84375 L 13.445312 19.988281 L 13.519531 20.226562 L 13.320312 20.078125 L 13.121094 20.226562 L 13.199219 19.988281 L 13 19.84375 L 13.246094 19.84375 L 13.320312 19.605469 " fill-opacity="1" fill-rule="nonzero"/><path fill="#ffffff" d="M 12.441406 20.332031 L 12.496094 20.507812 L 12.679688 20.507812 L 12.53125 20.617188 L 12.585938 20.789062 L 12.441406 20.683594 L 12.292969 20.789062 L 12.347656 20.617188 L 12.203125 20.507812 L 12.382812 20.507812 L 12.441406 20.332031 " fill-opacity="1" fill-rule="nonzero"/><path fill="#ffffff" d="M 14.800781 20.402344 L 14.855469 20.574219 L 15.039062 20.574219 L 14.890625 20.683594 L 14.945312 20.859375 L 14.800781 20.75 L 14.652344 20.859375 L 14.710938 20.683594 L 14.5625 20.574219 L 14.742188 20.574219 L 14.800781 20.402344 " fill-opacity="1" fill-rule="nonzero"/><path fill="#ffffff" d="M 14.585938 21.121094 L 14.640625 21.296875 L 14.824219 21.296875 L 14.675781 21.40625 L 14.730469 21.578125 L 14.585938 21.472656 L 14.4375 21.578125 L 14.492188 21.40625 L 14.347656 21.296875 L 14.527344 21.296875 L 14.585938 21.121094 " fill-opacity="1" fill-rule="nonzero"/><path fill="#ffffff" d="M 15.632812 21.738281 L 15.695312 21.9375 L 15.898438 21.9375 L 15.734375 22.058594 L 15.796875 22.253906 L 15.632812 22.132812 L 15.46875 22.253906 L 15.53125 22.058594 L 15.367188 21.9375 L 15.570312 21.9375 L 15.632812 21.738281 " fill-opacity="1" fill-rule="nonzero"/><path fill="#ffffff" d="M 18.472656 21.160156 L 18.539062 21.355469 L 18.742188 21.355469 L 18.574219 21.476562 L 18.636719 21.671875 L 18.472656 21.554688 L 18.308594 21.671875 L 18.371094 21.476562 L 18.207031 21.355469 L 18.410156 21.355469 L 18.472656 21.160156 " fill-opacity="1" fill-rule="nonzero"/><path fill="#ffffff" d="M 19.308594 19.746094 L 19.367188 19.929688 L 19.554688 19.929688 L 19.402344 20.039062 L 19.460938 20.222656 L 19.308594 20.109375 L 19.15625 20.222656 L 19.214844 20.039062 L 19.0625 19.929688 L 19.25 19.929688 L 19.308594 19.746094 " fill-opacity="1" fill-rule="nonzero"/><path fill="#ffffff" d="M 18.472656 19.09375 L 18.53125 19.273438 L 18.71875 19.273438 L 18.570312 19.386719 L 18.625 19.566406 L 18.472656 19.457031 L 18.320312 19.566406 L 18.378906 19.386719 L 18.226562 19.273438 L 18.417969 19.273438 L 18.472656 19.09375 " fill-opacity="1" fill-rule="nonzero"/><path fill="#ffffff" d="M 17.757812 19.75 L 17.808594 19.914062 L 17.976562 19.914062 L 17.839844 20.011719 L 17.890625 20.171875 L 17.757812 20.074219 L 17.621094 20.171875 L 17.675781 20.011719 L 17.539062 19.914062 L 17.707031 19.914062 L 17.757812 19.75 " fill-opacity="1" fill-rule="nonzero"/><path fill="#ffffff" d="M 18.113281 20.328125 L 18.152344 20.445312 L 18.273438 20.445312 L 18.175781 20.519531 L 18.214844 20.640625 L 18.113281 20.566406 L 18.011719 20.640625 L 18.050781 20.519531 L 17.953125 20.445312 L 18.074219 20.445312 L 18.113281 20.328125 " fill-opacity="1" fill-rule="nonzero"/><path fill="#ffffff" d="M 20.410156 17.683594 L 20.449219 17.800781 L 20.574219 17.800781 L 20.472656 17.875 L 20.511719 17.996094 L 20.410156 17.921875 L 20.3125 17.996094 L 20.351562 17.875 L 20.25 17.800781 L 20.375 17.800781 L 20.410156 17.683594 " fill-opacity="1" fill-rule="nonzero"/><path fill="#ffffff" d="M 20.683594 15.644531 L 20.753906 15.863281 L 20.984375 15.863281 L 20.796875 16 L 20.867188 16.21875 L 20.683594 16.082031 L 20.496094 16.21875 L 20.570312 16 L 20.382812 15.863281 L 20.613281 15.863281 L 20.683594 15.644531 " fill-opacity="1" fill-rule="nonzero"/><path fill="#ffffff" d="M 23.449219 20.414062 L 23.519531 20.636719 L 23.75 20.636719 L 23.5625 20.773438 L 23.632812 20.992188 L 23.449219 20.855469 L 23.261719 20.992188 L 23.335938 20.773438 L 23.148438 20.636719 L 23.378906 20.636719 L 23.449219 20.414062 " fill-opacity="1" fill-rule="nonzero"/><path fill="#ffffff" d="M 23.296875 21.660156 L 23.359375 21.84375 L 23.550781 21.84375 L 23.394531 21.957031 L 23.453125 22.140625 L 23.296875 22.027344 L 23.144531 22.140625 L 23.203125 21.957031 L 23.046875 21.84375 L 23.238281 21.84375 L 23.296875 21.660156 " fill-opacity="1" fill-rule="nonzero"/><path fill="#ffffff" d="M 23.738281 21.109375 L 23.796875 21.292969 L 23.988281 21.292969 L 23.835938 21.40625 L 23.894531 21.589844 L 23.738281 21.476562 L 23.585938 21.589844 L 23.644531 21.40625 L 23.488281 21.292969 L 23.679688 21.292969 L 23.738281 21.109375 " fill-opacity="1" fill-rule="nonzero"/><path fill="#ffffff" d="M 24.433594 20.566406 L 24.476562 20.707031 L 24.625 20.707031 L 24.507812 20.796875 L 24.550781 20.9375 L 24.433594 20.847656 L 24.316406 20.9375 L 24.359375 20.796875 L 24.242188 20.707031 L 24.386719 20.707031 L 24.433594 20.566406 " fill-opacity="1" fill-rule="nonzero"/><path fill="#ffffff" d="M 22.738281 22.09375 L 22.78125 22.234375 L 22.929688 22.234375 L 22.808594 22.324219 L 22.855469 22.464844 L 22.738281 22.375 L 22.617188 22.464844 L 22.664062 22.324219 L 22.542969 22.234375 L 22.691406 22.234375 L 22.738281 22.09375 " fill-opacity="1" fill-rule="nonzero"/><path fill="#ffffff" d="M 22.035156 22.628906 L 22.085938 22.789062 L 22.253906 22.789062 L 22.117188 22.890625 L 22.167969 23.050781 L 22.035156 22.949219 L 21.898438 23.050781 L 21.949219 22.890625 L 21.8125 22.789062 L 21.980469 22.789062 L 22.035156 22.628906 " fill-opacity="1" fill-rule="nonzero"/><path fill="#ffffff" d="M 21.988281 21.960938 L 22.03125 22.09375 L 22.167969 22.09375 L 22.054688 22.179688 L 22.097656 22.3125 L 21.988281 22.230469 L 21.875 22.3125 L 21.917969 22.179688 L 21.804688 22.09375 L 21.945312 22.09375 L 21.988281 21.960938 " fill-opacity="1" fill-rule="nonzero"/><path fill="#ffffff" d="M 21.21875 22.21875 L 21.261719 22.351562 L 21.398438 22.351562 L 21.289062 22.433594 L 21.332031 22.570312 L 21.21875 22.484375 L 21.105469 22.570312 L 21.148438 22.433594 L 21.035156 22.351562 L 21.175781 22.351562 L 21.21875 22.21875 " fill-opacity="1" fill-rule="nonzero"/><path fill="#ffffff" d="M 20.046875 22.027344 L 20.089844 22.160156 L 20.226562 22.160156 L 20.117188 22.246094 L 20.160156 22.378906 L 20.046875 22.296875 L 19.933594 22.378906 L 19.976562 22.246094 L 19.863281 22.160156 L 20.003906 22.160156 L 20.046875 22.027344 " fill-opacity="1" fill-rule="nonzero"/><path fill="#ffffff" d="M 22.03125 23.414062 L 22.074219 23.546875 L 22.210938 23.546875 L 22.097656 23.632812 L 22.140625 23.765625 L 22.03125 23.683594 L 21.917969 23.765625 L 21.960938 23.632812 L 21.847656 23.546875 L 21.988281 23.546875 L 22.03125 23.414062 " fill-opacity="1" fill-rule="nonzero"/><path fill="#ffffff" d="M 20.613281 22.816406 L 20.667969 22.980469 L 20.835938 22.980469 L 20.699219 23.082031 L 20.75 23.242188 L 20.613281 23.140625 L 20.476562 23.242188 L 20.53125 23.082031 L 20.394531 22.980469 L 20.5625 22.980469 L 20.613281 22.816406 " fill-opacity="1" fill-rule="nonzero"/><path fill="#ffffff" d="M 18.496094 23.71875 L 18.519531 23.792969 L 18.597656 23.792969 L 18.535156 23.839844 L 18.558594 23.917969 L 18.496094 23.871094 L 18.433594 23.917969 L 18.457031 23.839844 L 18.394531 23.792969 L 18.472656 23.792969 L 18.496094 23.71875 " fill-opacity="1" fill-rule="nonzero"/><path fill="#009b2d" d="M 12.109375 15.777344 C 12.140625 15.902344 12.242188 16.003906 12.378906 15.984375 C 12.515625 15.964844 12.570312 15.84375 12.542969 15.707031 C 12.519531 15.589844 12.421875 15.472656 12.273438 15.496094 C 12.125 15.519531 12.078125 15.648438 12.109375 15.777344 Z M 12.636719 15.691406 C 12.675781 15.898438 12.554688 16.023438 12.386719 16.046875 C 12.210938 16.074219 12.058594 15.972656 12.015625 15.792969 C 11.96875 15.605469 12.074219 15.460938 12.261719 15.433594 C 12.453125 15.40625 12.601562 15.515625 12.636719 15.691406 " fill-opacity="1" fill-rule="nonzero"/><path fill="#009b2d" d="M 13.140625 15.625 C 13.167969 15.621094 13.199219 15.617188 13.230469 15.617188 C 13.324219 15.609375 13.378906 15.558594 13.367188 15.488281 C 13.359375 15.414062 13.289062 15.382812 13.191406 15.390625 C 13.148438 15.394531 13.117188 15.402344 13.105469 15.40625 C 13.117188 15.476562 13.128906 15.550781 13.140625 15.625 Z M 13.007812 15.359375 C 13.050781 15.347656 13.113281 15.335938 13.175781 15.332031 C 13.273438 15.324219 13.339844 15.332031 13.386719 15.363281 C 13.425781 15.386719 13.449219 15.429688 13.457031 15.472656 C 13.464844 15.554688 13.417969 15.609375 13.347656 15.636719 C 13.347656 15.636719 13.347656 15.636719 13.347656 15.640625 C 13.402344 15.652344 13.441406 15.691406 13.464844 15.753906 C 13.496094 15.835938 13.523438 15.890625 13.539062 15.914062 C 13.507812 15.914062 13.480469 15.917969 13.449219 15.921875 C 13.4375 15.902344 13.414062 15.855469 13.382812 15.78125 C 13.351562 15.699219 13.3125 15.671875 13.230469 15.675781 C 13.203125 15.675781 13.175781 15.679688 13.148438 15.683594 C 13.164062 15.769531 13.175781 15.855469 13.1875 15.941406 C 13.160156 15.945312 13.132812 15.945312 13.101562 15.949219 C 13.070312 15.753906 13.039062 15.554688 13.007812 15.359375 " fill-opacity="1" fill-rule="nonzero"/><path fill="#009b2d" d="M 14.015625 15.828125 C 14.039062 15.832031 14.070312 15.828125 14.101562 15.828125 C 14.289062 15.824219 14.382812 15.730469 14.371094 15.566406 C 14.363281 15.425781 14.265625 15.335938 14.074219 15.339844 C 14.027344 15.34375 13.992188 15.347656 13.96875 15.351562 C 13.984375 15.511719 14 15.667969 14.015625 15.828125 Z M 13.875 15.300781 C 13.929688 15.289062 13.992188 15.28125 14.066406 15.28125 C 14.195312 15.277344 14.289062 15.300781 14.355469 15.347656 C 14.417969 15.398438 14.457031 15.46875 14.464844 15.566406 C 14.46875 15.664062 14.441406 15.742188 14.382812 15.796875 C 14.324219 15.855469 14.222656 15.886719 14.089844 15.890625 C 14.03125 15.894531 13.976562 15.894531 13.933594 15.890625 C 13.914062 15.695312 13.894531 15.496094 13.875 15.300781 " fill-opacity="1" fill-rule="nonzero"/><path fill="#009b2d" d="M 15.238281 15.613281 C 15.148438 15.609375 15.0625 15.605469 14.972656 15.601562 C 14.972656 15.675781 14.976562 15.746094 14.976562 15.820312 C 15.074219 15.824219 15.171875 15.824219 15.269531 15.832031 C 15.269531 15.851562 15.269531 15.875 15.269531 15.894531 C 15.144531 15.890625 15.019531 15.886719 14.894531 15.882812 C 14.886719 15.683594 14.882812 15.480469 14.875 15.28125 C 15 15.285156 15.128906 15.289062 15.253906 15.292969 C 15.253906 15.316406 15.253906 15.335938 15.253906 15.359375 C 15.15625 15.355469 15.0625 15.351562 14.96875 15.347656 C 14.96875 15.410156 14.96875 15.476562 14.972656 15.539062 C 15.058594 15.539062 15.148438 15.542969 15.238281 15.546875 C 15.238281 15.570312 15.238281 15.589844 15.238281 15.613281 " fill-opacity="1" fill-rule="nonzero"/><path fill="#009b2d" d="M 16.253906 15.710938 C 16.257812 15.625 16.257812 15.523438 16.265625 15.449219 C 16.261719 15.449219 16.261719 15.449219 16.261719 15.449219 C 16.234375 15.515625 16.199219 15.589844 16.160156 15.667969 C 16.113281 15.761719 16.066406 15.851562 16.023438 15.945312 C 16 15.945312 15.980469 15.941406 15.957031 15.941406 C 15.925781 15.839844 15.894531 15.742188 15.863281 15.644531 C 15.835938 15.558594 15.808594 15.476562 15.792969 15.40625 C 15.792969 15.40625 15.792969 15.40625 15.789062 15.40625 C 15.785156 15.480469 15.777344 15.582031 15.769531 15.667969 C 15.757812 15.753906 15.75 15.839844 15.742188 15.925781 C 15.714844 15.921875 15.6875 15.921875 15.660156 15.917969 C 15.679688 15.71875 15.703125 15.519531 15.726562 15.324219 C 15.761719 15.324219 15.800781 15.328125 15.839844 15.332031 C 15.875 15.433594 15.910156 15.53125 15.945312 15.632812 C 15.96875 15.707031 15.988281 15.777344 16 15.839844 C 16.003906 15.839844 16.003906 15.839844 16.003906 15.839844 C 16.023438 15.78125 16.050781 15.71875 16.085938 15.644531 C 16.132812 15.550781 16.179688 15.460938 16.226562 15.367188 C 16.265625 15.371094 16.304688 15.378906 16.34375 15.382812 C 16.339844 15.582031 16.339844 15.78125 16.335938 15.984375 C 16.308594 15.980469 16.28125 15.976562 16.253906 15.972656 C 16.253906 15.886719 16.253906 15.796875 16.253906 15.710938 " fill-opacity="1" fill-rule="nonzero"/><path fill="#009b2d" d="M 17.652344 15.910156 C 17.566406 15.890625 17.476562 15.875 17.390625 15.859375 C 17.378906 15.929688 17.367188 16 17.359375 16.070312 C 17.453125 16.089844 17.546875 16.109375 17.644531 16.128906 C 17.636719 16.148438 17.636719 16.167969 17.632812 16.191406 C 17.507812 16.164062 17.386719 16.140625 17.261719 16.121094 C 17.292969 15.921875 17.324219 15.726562 17.351562 15.53125 C 17.476562 15.550781 17.597656 15.574219 17.722656 15.601562 C 17.71875 15.621094 17.714844 15.644531 17.710938 15.664062 C 17.617188 15.644531 17.523438 15.628906 17.429688 15.609375 C 17.421875 15.671875 17.410156 15.734375 17.402344 15.796875 C 17.488281 15.8125 17.574219 15.828125 17.664062 15.847656 C 17.660156 15.867188 17.65625 15.886719 17.652344 15.910156 " fill-opacity="1" fill-rule="nonzero"/><path fill="#009b2d" d="M 18.679688 16.132812 C 18.699219 16.140625 18.722656 16.148438 18.75 16.15625 C 18.851562 16.183594 18.925781 16.160156 18.949219 16.082031 C 18.96875 16.003906 18.917969 15.949219 18.824219 15.921875 C 18.785156 15.914062 18.753906 15.90625 18.738281 15.90625 C 18.71875 15.980469 18.699219 16.054688 18.679688 16.132812 Z M 18.667969 15.828125 C 18.710938 15.835938 18.765625 15.84375 18.835938 15.863281 C 18.921875 15.886719 18.980469 15.921875 19.011719 15.964844 C 19.039062 16.003906 19.050781 16.050781 19.035156 16.101562 C 19.019531 16.152344 18.992188 16.191406 18.949219 16.210938 C 18.890625 16.238281 18.8125 16.238281 18.730469 16.214844 C 18.707031 16.207031 18.683594 16.203125 18.664062 16.191406 C 18.644531 16.269531 18.625 16.347656 18.605469 16.421875 C 18.578125 16.414062 18.550781 16.40625 18.523438 16.402344 C 18.570312 16.210938 18.617188 16.019531 18.667969 15.828125 " fill-opacity="1" fill-rule="nonzero"/><path fill="#009b2d" d="M 19.492188 16.359375 C 19.519531 16.371094 19.550781 16.378906 19.578125 16.386719 C 19.667969 16.417969 19.738281 16.394531 19.761719 16.332031 C 19.785156 16.257812 19.734375 16.207031 19.644531 16.175781 C 19.605469 16.160156 19.574219 16.15625 19.558594 16.152344 C 19.539062 16.222656 19.515625 16.292969 19.492188 16.359375 Z M 19.492188 16.074219 C 19.539062 16.082031 19.601562 16.097656 19.660156 16.117188 C 19.75 16.148438 19.804688 16.183594 19.835938 16.226562 C 19.859375 16.265625 19.863281 16.308594 19.847656 16.351562 C 19.820312 16.425781 19.75 16.457031 19.675781 16.453125 C 19.675781 16.453125 19.675781 16.457031 19.675781 16.457031 C 19.71875 16.488281 19.734375 16.539062 19.730469 16.601562 C 19.722656 16.6875 19.71875 16.746094 19.722656 16.773438 C 19.695312 16.765625 19.667969 16.753906 19.636719 16.742188 C 19.632812 16.726562 19.636719 16.671875 19.644531 16.59375 C 19.652344 16.511719 19.628906 16.46875 19.550781 16.441406 C 19.527344 16.433594 19.5 16.425781 19.472656 16.414062 C 19.445312 16.496094 19.417969 16.578125 19.394531 16.660156 C 19.367188 16.652344 19.339844 16.640625 19.3125 16.632812 C 19.371094 16.445312 19.429688 16.261719 19.492188 16.074219 " fill-opacity="1" fill-rule="nonzero"/><path fill="#009b2d" d="M 20.253906 16.65625 C 20.207031 16.777344 20.238281 16.910156 20.363281 16.960938 C 20.488281 17.011719 20.605469 16.9375 20.660156 16.816406 C 20.707031 16.707031 20.691406 16.566406 20.550781 16.507812 C 20.414062 16.453125 20.300781 16.535156 20.253906 16.65625 Z M 20.746094 16.847656 C 20.664062 17.035156 20.492188 17.078125 20.335938 17.015625 C 20.171875 16.949219 20.101562 16.792969 20.164062 16.625 C 20.234375 16.449219 20.40625 16.382812 20.582031 16.453125 C 20.757812 16.523438 20.820312 16.6875 20.746094 16.847656 " fill-opacity="1" fill-rule="nonzero"/><path fill="#009b2d" d="M 21.46875 17.488281 C 21.429688 17.484375 21.351562 17.464844 21.269531 17.425781 C 21.179688 17.382812 21.113281 17.328125 21.078125 17.25 C 21.046875 17.179688 21.050781 17.09375 21.089844 17.011719 C 21.167969 16.851562 21.351562 16.789062 21.566406 16.894531 C 21.636719 16.929688 21.6875 16.96875 21.707031 16.996094 C 21.691406 17.011719 21.675781 17.023438 21.660156 17.039062 C 21.632812 17.011719 21.597656 16.980469 21.535156 16.949219 C 21.382812 16.875 21.242188 16.910156 21.175781 17.046875 C 21.109375 17.183594 21.164062 17.304688 21.304688 17.371094 C 21.355469 17.398438 21.394531 17.410156 21.417969 17.410156 C 21.441406 17.355469 21.472656 17.304688 21.5 17.25 C 21.457031 17.230469 21.414062 17.210938 21.375 17.191406 C 21.382812 17.171875 21.390625 17.152344 21.402344 17.136719 C 21.46875 17.167969 21.539062 17.203125 21.605469 17.234375 C 21.558594 17.320312 21.515625 17.402344 21.46875 17.488281 " fill-opacity="1" fill-rule="nonzero"/><path fill="#009b2d" d="M 22.074219 17.476562 C 22.101562 17.492188 22.128906 17.503906 22.152344 17.519531 C 22.238281 17.566406 22.3125 17.554688 22.347656 17.496094 C 22.386719 17.433594 22.347656 17.371094 22.265625 17.324219 C 22.226562 17.304688 22.199219 17.292969 22.183594 17.289062 C 22.148438 17.351562 22.109375 17.414062 22.074219 17.476562 Z M 22.132812 17.199219 C 22.175781 17.210938 22.234375 17.242188 22.289062 17.269531 C 22.375 17.316406 22.421875 17.359375 22.441406 17.410156 C 22.460938 17.449219 22.453125 17.496094 22.429688 17.535156 C 22.390625 17.601562 22.3125 17.617188 22.238281 17.601562 C 22.273438 17.640625 22.28125 17.695312 22.261719 17.753906 C 22.238281 17.835938 22.222656 17.894531 22.222656 17.921875 C 22.195312 17.90625 22.167969 17.890625 22.144531 17.875 C 22.140625 17.855469 22.15625 17.804688 22.175781 17.734375 C 22.203125 17.652344 22.1875 17.605469 22.117188 17.566406 C 22.09375 17.554688 22.070312 17.539062 22.046875 17.527344 C 22.003906 17.601562 21.957031 17.675781 21.914062 17.75 C 21.890625 17.738281 21.863281 17.722656 21.839844 17.710938 C 21.9375 17.539062 22.035156 17.367188 22.132812 17.199219 " fill-opacity="1" fill-rule="nonzero"/><path fill="#009b2d" d="M 23.019531 18.074219 C 22.941406 18.027344 22.867188 17.980469 22.792969 17.933594 C 22.753906 17.992188 22.710938 18.054688 22.671875 18.113281 C 22.753906 18.164062 22.835938 18.214844 22.917969 18.269531 C 22.90625 18.285156 22.894531 18.304688 22.882812 18.320312 C 22.777344 18.253906 22.667969 18.1875 22.5625 18.121094 C 22.671875 17.957031 22.78125 17.789062 22.890625 17.621094 C 23 17.6875 23.105469 17.753906 23.214844 17.824219 C 23.199219 17.839844 23.1875 17.859375 23.175781 17.875 C 23.09375 17.824219 23.015625 17.773438 22.933594 17.722656 C 22.898438 17.777344 22.863281 17.828125 22.828125 17.878906 C 22.902344 17.925781 22.980469 17.976562 23.054688 18.023438 C 23.042969 18.039062 23.03125 18.058594 23.019531 18.074219 " fill-opacity="1" fill-rule="nonzero"/><path fill="#009b2d" d="M 23.273438 18.464844 C 23.292969 18.503906 23.328125 18.550781 23.378906 18.585938 C 23.449219 18.636719 23.519531 18.632812 23.554688 18.585938 C 23.589844 18.542969 23.582031 18.496094 23.523438 18.417969 C 23.453125 18.328125 23.425781 18.246094 23.476562 18.179688 C 23.53125 18.105469 23.648438 18.097656 23.761719 18.175781 C 23.820312 18.21875 23.855469 18.261719 23.871094 18.289062 C 23.851562 18.300781 23.828125 18.3125 23.808594 18.324219 C 23.796875 18.304688 23.769531 18.261719 23.71875 18.226562 C 23.640625 18.171875 23.582031 18.191406 23.554688 18.222656 C 23.523438 18.269531 23.539062 18.3125 23.597656 18.394531 C 23.671875 18.492188 23.6875 18.5625 23.632812 18.632812 C 23.574219 18.707031 23.464844 18.722656 23.332031 18.632812 C 23.28125 18.597656 23.230469 18.542969 23.214844 18.503906 C 23.234375 18.492188 23.253906 18.480469 23.273438 18.464844 " fill-opacity="1" fill-rule="nonzero"/><path fill="#009b2d" d="M 23.917969 18.929688 C 23.9375 18.96875 23.96875 19.019531 24.019531 19.054688 C 24.089844 19.109375 24.15625 19.109375 24.199219 19.066406 C 24.234375 19.023438 24.226562 18.976562 24.175781 18.894531 C 24.109375 18.800781 24.085938 18.71875 24.140625 18.65625 C 24.199219 18.582031 24.320312 18.585938 24.425781 18.667969 C 24.484375 18.714844 24.515625 18.757812 24.53125 18.789062 C 24.507812 18.796875 24.488281 18.808594 24.46875 18.820312 C 24.457031 18.796875 24.433594 18.753906 24.382812 18.714844 C 24.308594 18.65625 24.246094 18.671875 24.21875 18.703125 C 24.183594 18.746094 24.199219 18.792969 24.253906 18.875 C 24.320312 18.976562 24.332031 19.050781 24.273438 19.117188 C 24.210938 19.1875 24.097656 19.199219 23.972656 19.101562 C 23.921875 19.0625 23.875 19.003906 23.859375 18.964844 C 23.878906 18.953125 23.898438 18.941406 23.917969 18.929688 " fill-opacity="1" fill-rule="nonzero"/><path fill="#009b2d" d="M 24.734375 19.324219 C 24.644531 19.417969 24.625 19.550781 24.730469 19.644531 C 24.832031 19.734375 24.972656 19.707031 25.070312 19.613281 C 25.15625 19.527344 25.195312 19.390625 25.078125 19.292969 C 24.964844 19.191406 24.824219 19.230469 24.734375 19.324219 Z M 25.144531 19.671875 C 24.992188 19.816406 24.808594 19.796875 24.679688 19.683594 C 24.546875 19.566406 24.535156 19.398438 24.660156 19.265625 C 24.792969 19.125 24.984375 19.125 25.128906 19.25 C 25.273438 19.375 25.273438 19.550781 25.144531 19.671875 " fill-opacity="1" fill-rule="nonzero"/></svg>